<?xml version="1.0" standalone="no"?>
<!DOCTYPE svg PUBLIC "-//W3C//DTD SVG 20010904//EN"
 "http://www.w3.org/TR/2001/REC-SVG-20010904/DTD/svg10.dtd">
<svg version="1.0" xmlns="http://www.w3.org/2000/svg"
 width="1000.000000pt" height="1000.000000pt" viewBox="0 0 1000.000000 1000.000000"
 preserveAspectRatio="xMidYMid meet">
<metadata>
Created by potrace 1.14, written by Peter Selinger 2001-2017
</metadata>
<g transform="translate(0.000000,1000.000000) scale(0.100000,-0.100000)"
fill="#000000" stroke="none">
<path d="M4745 9345 c-147 -30 -215 -43 -280 -55 -79 -14 -197 -51 -265 -82
-80 -36 -234 -109 -255 -121 -11 -5 -50 -26 -87 -45 -38 -18 -68 -38 -68 -44
0 -5 -8 -8 -17 -7 -68 10 -193 -58 -238 -129 -15 -24 -38 -48 -51 -52 -13 -5
-33 -24 -45 -43 -12 -18 -40 -46 -61 -62 -22 -17 -55 -51 -74 -76 -19 -26 -41
-50 -50 -53 -10 -4 -13 -13 -9 -26 5 -15 -2 -25 -29 -41 -19 -11 -38 -28 -41
-37 -3 -9 -21 -27 -40 -40 -19 -12 -35 -28 -35 -35 0 -7 -9 -19 -21 -27 -20
-14 -89 -104 -89 -116 0 -3 -13 -24 -29 -47 -16 -24 -36 -58 -45 -77 -9 -19
-34 -62 -55 -95 -22 -33 -45 -71 -51 -84 -6 -14 -22 -35 -35 -47 -14 -13 -25
-32 -25 -43 0 -12 -18 -56 -41 -98 -60 -115 -134 -350 -145 -463 -3 -36 -11
-74 -17 -85 -6 -11 -12 -69 -14 -130 -4 -133 -21 -223 -44 -236 -9 -4 -20 -25
-24 -46 -3 -21 -12 -56 -20 -79 -12 -36 -28 -193 -28 -269 3 -218 6 -277 19
-282 9 -3 13 -24 13 -66 -1 -96 13 -178 34 -205 6 -8 12 -73 14 -145 4 -203 6
-227 16 -227 5 0 6 -18 2 -42 -11 -62 -16 -107 -20 -163 -2 -27 -7 -79 -10
-115 -4 -36 -6 -75 -6 -87 1 -13 1 -33 1 -45 1 -28 -25 -187 -33 -208 -6 -13
-18 -118 -18 -145 0 -5 3 -22 7 -36 4 -17 -1 -40 -15 -67 -23 -46 -27 -92 -9
-110 8 -8 8 -15 0 -25 -11 -13 -17 -43 -32 -162 -5 -38 -14 -90 -20 -114 -6
-24 -8 -46 -6 -49 3 -2 1 -13 -4 -23 -6 -9 -12 -35 -15 -56 -8 -71 -17 -108
-30 -123 -21 -25 -27 -84 -10 -105 13 -17 16 -18 25 -5 8 11 9 3 4 -30 -3 -25
-15 -56 -26 -70 -12 -16 -17 -32 -13 -48 3 -13 -3 -50 -16 -84 -11 -33 -22
-81 -23 -107 -1 -30 -12 -63 -31 -95 -27 -46 -27 -48 -7 -42 22 7 31 -7 12
-19 -5 -3 -10 -15 -10 -25 0 -10 -10 -31 -23 -47 -13 -15 -32 -43 -43 -61 -18
-32 -18 -34 -1 -43 30 -17 21 -64 -25 -128 -21 -28 -24 -56 -5 -45 13 8 -1 -9
-57 -69 -20 -22 -36 -42 -36 -45 0 -3 -17 -23 -37 -44 -34 -35 -36 -39 -24
-64 9 -21 9 -29 0 -34 -6 -4 -9 -13 -5 -18 7 -11 -9 -45 -31 -70 -7 -7 -13
-19 -14 -25 -2 -33 -10 -52 -31 -76 -14 -14 -33 -46 -43 -71 -11 -25 -35 -64
-53 -87 -25 -32 -33 -50 -29 -69 3 -19 -5 -38 -34 -74 -22 -27 -39 -52 -39
-56 0 -4 -11 -22 -25 -39 -13 -18 -22 -35 -19 -37 2 -3 -11 -21 -30 -41 -32
-35 -34 -38 -24 -79 9 -42 18 -62 18 -40 0 7 9 12 20 12 20 0 20 -1 3 -25 -22
-30 -44 -40 -37 -17 3 9 -13 -3 -35 -28 -38 -42 -39 -45 -20 -50 20 -5 20 -6
-6 -30 -15 -14 -38 -46 -51 -72 -25 -50 -40 -59 -51 -32 -3 9 6 24 26 41 34
28 39 43 15 43 -15 0 -84 -68 -84 -82 0 -5 9 -8 20 -8 24 0 25 -13 4 -45 -14
-21 -14 -28 -3 -41 11 -14 9 -20 -15 -41 -16 -13 -26 -27 -23 -30 4 -3 -5 -25
-18 -50 -14 -24 -25 -50 -25 -57 0 -8 -8 -31 -17 -52 -9 -22 -17 -43 -18 -49
-1 -5 -7 -23 -14 -40 -8 -16 -13 -49 -12 -72 1 -23 -5 -56 -14 -72 -8 -17 -15
-42 -15 -57 0 -15 -8 -32 -17 -39 -16 -12 -32 -101 -37 -202 -1 -17 -5 -35 -9
-39 -4 -4 -7 -16 -7 -26 0 -15 -5 -18 -22 -12 -25 7 -38 22 -38 42 0 6 -7 12
-15 12 -18 0 -20 -31 -3 -48 8 -8 8 -12 1 -12 -6 0 -14 -17 -18 -37 -4 -21
-10 -42 -15 -48 -4 -5 -10 -27 -14 -48 -6 -31 -11 -37 -33 -37 -22 0 -24 3
-18 27 6 24 5 25 -10 13 -10 -9 -14 -22 -11 -36 4 -13 2 -25 -3 -28 -4 -3 -6
-17 -3 -31 3 -21 0 -27 -17 -32 -27 -7 -28 -23 -1 -23 11 0 20 -4 20 -10 0 -5
-7 -7 -17 -3 -13 5 -15 2 -11 -15 3 -11 -1 -30 -9 -41 -9 -14 -12 -32 -7 -57
5 -29 3 -38 -14 -50 -12 -8 -22 -28 -24 -46 -2 -25 -9 -34 -28 -38 -29 -7 -39
-37 -16 -46 23 -9 20 -17 -12 -31 -27 -13 -62 -62 -62 -89 0 -8 -7 -17 -15
-20 -8 -4 -15 -11 -15 -17 0 -6 -7 -19 -17 -29 -16 -17 12 -18 864 -18 l880 0
12 22 11 23 -6 -22 -5 -23 3530 0 3530 0 -15 48 c-39 126 -49 152 -84 217 -20
39 -43 86 -50 105 -18 45 -112 198 -167 272 -24 31 -43 60 -43 65 0 5 -13 23
-30 41 -40 45 -51 67 -39 79 13 13 -39 126 -56 119 -27 -10 -71 252 -50 301 5
10 10 32 11 48 l3 30 -12 -26 c-7 -14 -17 -24 -24 -22 -11 4 -17 -16 -29 -99
-6 -44 -24 -68 -24 -33 0 8 -10 25 -21 36 -16 16 -20 29 -16 55 5 32 -6 49
-15 22 -2 -6 -12 23 -22 65 -14 57 -15 81 -7 90 13 16 5 27 -20 27 -18 0 -27
26 -30 90 -2 72 1 76 22 30 12 -25 23 -39 26 -33 2 7 -3 23 -11 35 -10 14 -16
44 -16 80 0 32 -4 58 -9 58 -13 0 -20 37 -9 48 6 6 7 16 2 24 -6 9 -10 7 -14
-10 -8 -37 -24 -30 -28 12 -3 50 -9 56 -21 22 -6 -14 -15 -26 -21 -26 -15 0
-12 59 6 105 8 22 17 56 20 75 4 32 4 33 -9 15 -14 -18 -15 -18 -46 10 -29 28
-31 34 -31 100 0 39 -4 75 -9 81 -5 5 -12 25 -16 44 -7 33 -6 34 9 15 8 -11
16 -30 16 -42 0 -13 4 -23 10 -23 5 0 13 -18 16 -41 5 -29 13 -44 30 -51 31
-14 40 -4 25 28 -6 14 -14 64 -16 112 -3 50 -12 96 -20 108 -8 13 -15 52 -17
94 -2 62 -5 75 -30 100 -15 16 -30 40 -34 54 -3 15 -11 23 -19 20 -7 -3 -16 4
-20 16 -4 11 -16 29 -28 40 -11 11 -17 23 -14 27 4 4 13 1 19 -5 7 -7 19 -12
27 -12 10 0 6 9 -12 28 -15 15 -27 40 -27 53 0 14 -8 33 -18 42 -24 22 -32 21
-32 0 0 -15 -4 -13 -20 7 -11 14 -20 33 -20 43 0 11 -10 33 -22 50 -12 18 -19
30 -15 27 36 -27 77 -63 119 -103 27 -27 52 -46 55 -44 9 10 -26 63 -76 114
-46 49 -105 148 -96 163 2 4 -14 24 -35 45 -27 27 -40 34 -40 23 0 -9 -7 -18
-15 -22 -10 -4 -15 1 -15 14 0 11 -4 20 -8 20 -4 0 -14 16 -21 36 -7 19 -26
48 -42 65 -29 30 -38 46 -19 34 25 -15 6 24 -27 59 -30 31 -39 35 -41 22 -2
-9 1 -23 7 -30 14 -16 3 -56 -14 -49 -8 2 -17 18 -20 34 -4 16 -13 36 -21 44
-9 8 -17 26 -18 40 -1 14 -9 33 -18 42 -16 19 -58 91 -58 99 0 3 5 2 10 -1 15
-9 40 14 40 36 0 24 -17 25 -22 2 -3 -16 -4 -16 -20 0 -14 15 -19 15 -31 3
-21 -21 -35 -6 -42 44 l-6 45 25 -28 c31 -33 53 -27 30 8 -8 13 -17 43 -18 67
-2 23 -7 54 -11 67 -6 17 -5 22 3 17 8 -4 10 -2 6 7 -3 8 -13 13 -23 10 -24
-6 -45 23 -47 66 -1 20 -5 47 -9 61 -8 25 -8 25 13 6 22 -19 22 -19 22 1 0 12
-7 24 -16 27 -8 3 -13 10 -10 15 3 5 -1 14 -9 21 -8 7 -15 23 -15 36 0 14 -4
33 -10 44 -24 47 -26 57 -26 90 1 25 -6 40 -21 53 -13 10 -23 26 -23 36 0 9
-4 21 -9 26 -5 6 -18 37 -30 69 -12 33 -25 64 -29 70 -3 6 -7 26 -8 45 0 19
-8 39 -16 45 -8 6 -19 22 -23 36 -4 14 -17 42 -28 63 -17 31 -19 41 -9 57 14
22 4 55 -31 104 -28 39 -49 108 -51 166 -2 48 -14 83 -25 75 -4 -2 -6 9 -3 24
2 16 -4 44 -14 62 -12 22 -18 57 -19 99 0 41 -7 76 -17 95 -9 17 -29 67 -44
113 -15 45 -31 82 -37 82 -5 0 -7 -9 -4 -20 9 -34 -9 -22 -26 18 -18 41 -30
118 -47 292 -6 63 -17 125 -23 138 -8 18 -7 29 5 50 18 30 26 120 13 142 -5 9
-4 11 3 6 15 -9 15 -5 2 30 -6 15 -13 24 -17 21 -3 -4 -16 26 -29 66 -13 39
-30 92 -38 117 -8 25 -18 62 -21 83 -4 20 -11 40 -15 42 -5 3 -6 20 -4 38 7
40 -21 107 -47 114 -13 4 -19 14 -19 34 0 15 -5 31 -10 34 -7 4 -9 -2 -6 -17
12 -54 16 -137 6 -143 -13 -8 -13 -104 1 -143 6 -17 9 -45 7 -64 -3 -28 -8
-17 -35 67 -17 55 -34 113 -38 129 -3 16 -14 30 -25 33 -17 5 -30 27 -45 80
-5 18 -3 22 8 17 20 -7 30 11 21 38 l-7 23 -9 -24 c-12 -33 -24 -17 -32 42 -8
50 -2 58 20 30 12 -17 13 -17 14 -1 0 10 -6 37 -14 60 -8 24 -17 75 -21 113
-5 48 -14 82 -30 106 -15 23 -22 45 -18 58 7 28 17 27 38 -5 24 -38 29 -23 11
37 -20 65 -20 77 -2 59 13 -14 26 -50 57 -170 19 -73 30 -99 42 -97 7 1 16
-27 22 -68 5 -39 18 -81 27 -95 17 -23 18 -22 15 67 -2 85 -4 93 -24 102 -29
14 -32 45 -3 36 17 -5 20 -2 20 22 -1 15 -7 46 -15 68 -16 44 -19 71 -7 78 4
2 2 3 -4 1 -6 -1 -18 13 -26 32 -9 19 -11 34 -6 34 12 0 4 38 -27 133 -13 39
-22 73 -21 74 8 9 56 -53 62 -79 3 -17 15 -45 26 -62 l20 -31 -6 28 c-4 15
-20 56 -36 89 -33 67 -37 82 -17 53 8 -10 19 -15 26 -11 9 6 5 21 -15 54 -35
62 -48 74 -42 40 4 -19 1 -25 -9 -21 -7 3 -13 16 -13 29 0 46 -26 91 -59 102
-27 10 -30 14 -25 40 3 16 1 32 -4 36 -9 5 -5 46 4 46 8 0 44 -35 44 -43 0
-12 30 -40 36 -34 7 6 -18 47 -28 47 -5 0 -8 9 -8 20 0 10 -9 27 -19 37 -11
10 -22 30 -26 46 -4 15 -11 27 -15 27 -5 0 -11 22 -15 50 -4 27 -11 52 -16 56
-12 7 -11 24 1 24 6 0 10 -5 10 -11 0 -6 7 -17 15 -25 21 -22 19 -5 -5 34 -11
18 -25 30 -30 27 -6 -3 -10 3 -10 15 0 22 -9 36 -48 75 -17 17 -22 30 -17 45
4 12 1 28 -7 37 -11 15 -10 16 10 10 23 -6 24 -5 6 16 -50 59 -101 107 -116
107 -9 0 -18 6 -20 12 -5 15 20 43 30 34 3 -4 0 -11 -8 -16 -8 -5 -11 -12 -8
-16 4 -3 13 0 21 8 12 12 12 17 -4 37 -11 13 -19 18 -19 11 0 -10 -3 -10 -15
0 -9 7 -13 21 -10 31 4 12 1 19 -7 19 -14 0 -70 104 -81 150 -10 43 -383 410
-416 410 -4 0 -36 24 -70 54 -35 30 -86 66 -114 81 -116 59 -188 101 -195 111
-4 6 -18 15 -32 18 -14 4 -47 18 -75 31 -76 37 -270 92 -365 105 -47 6 -113
16 -147 21 -84 13 -345 9 -418 -6z m-977 -1161 c20 -2 58 -5 83 -6 29 -2 55
-10 68 -22 18 -17 31 -18 98 -12 42 3 82 11 87 16 6 6 16 4 27 -6 9 -8 29 -17
45 -20 65 -11 106 -26 121 -44 9 -10 21 -16 26 -13 17 10 57 -20 57 -42 0 -19
7 -23 42 -28 24 -3 45 -13 51 -22 19 -35 48 -55 77 -55 17 0 30 -5 30 -11 0
-16 42 -48 63 -49 9 0 17 -4 17 -8 0 -5 14 -27 32 -50 22 -29 42 -44 65 -48
20 -4 41 -17 53 -35 12 -15 27 -26 34 -23 14 5 46 -36 46 -61 0 -8 3 -15 8
-14 19 3 52 -15 57 -32 4 -11 15 -24 26 -30 11 -5 19 -15 18 -22 -3 -28 2 -38
26 -47 14 -5 25 -15 25 -21 0 -6 9 -9 20 -6 15 4 20 0 20 -14 0 -10 24 -42 53
-71 54 -54 88 -110 101 -163 4 -16 18 -47 32 -67 13 -21 24 -47 24 -58 0 -11
4 -20 9 -20 5 0 12 -12 16 -27 3 -16 22 -59 41 -97 19 -38 34 -77 34 -86 0
-10 7 -35 16 -55 8 -21 20 -63 24 -93 5 -30 16 -62 24 -71 8 -9 17 -42 21 -73
l7 -58 -31 0 c-17 0 -31 -5 -31 -11 0 -5 -26 -22 -57 -36 -54 -24 -68 -25
-188 -24 -143 2 -202 -12 -272 -65 -38 -29 -42 -44 -13 -51 11 -3 20 -13 20
-23 0 -21 19 -30 65 -30 35 0 85 -18 85 -30 0 -4 -7 -13 -15 -20 -8 -7 -15
-17 -15 -22 0 -16 -30 -40 -43 -35 -8 3 -19 -4 -25 -14 -7 -10 -21 -19 -33
-19 -46 0 -103 -94 -69 -115 6 -3 10 -19 10 -36 0 -37 14 -37 64 1 22 17 41
28 44 26 2 -3 -8 -22 -22 -43 -37 -54 -34 -78 14 -111 30 -20 39 -33 37 -51
-2 -25 32 -56 39 -36 14 35 22 39 47 22 19 -12 33 -14 57 -7 18 5 37 7 42 4 5
-3 15 -1 23 6 10 9 16 7 23 -6 6 -11 17 -15 32 -11 23 6 70 -10 70 -25 0 -4
13 -8 29 -8 17 0 33 -4 36 -10 3 -5 19 -10 34 -10 35 0 91 -19 91 -31 0 -5 6
-9 14 -9 13 0 26 -20 26 -41 0 -5 -11 -9 -24 -9 -13 0 -30 -8 -37 -17 -10 -11
-10 -14 -1 -9 6 4 12 2 12 -3 0 -6 15 -10 33 -10 17 1 45 -2 61 -5 28 -7 28
-7 24 39 -4 53 16 63 26 13 3 -17 17 -51 31 -74 20 -34 30 -42 48 -39 17 3 34
-12 82 -72 33 -42 72 -93 86 -115 31 -47 44 -46 41 2 l-3 35 23 -40 c13 -22
35 -67 50 -100 15 -33 52 -114 82 -180 37 -80 56 -133 56 -158 0 -21 8 -59 19
-85 126 -319 82 -591 -146 -894 -100 -133 -205 -243 -318 -332 -91 -73 -196
-146 -209 -146 -4 0 -26 -13 -49 -29 -47 -32 -129 -71 -149 -71 -7 0 -26 -7
-43 -16 -48 -26 -103 -43 -167 -54 -44 -7 -80 -22 -138 -59 -166 -107 -302
-144 -404 -111 -32 10 -106 30 -216 57 -36 9 -81 17 -101 18 -19 1 -42 5 -49
10 -8 5 -32 12 -55 16 -22 4 -92 25 -155 47 -110 39 -118 44 -190 114 -77 76
-165 175 -212 239 -28 39 -66 79 -95 101 -25 18 -131 133 -114 123 11 -6 10
-2 -2 16 -20 27 -22 43 -5 33 7 -4 8 -3 4 4 -4 7 -15 12 -25 12 -9 0 -22 5
-29 12 -9 9 -12 9 -12 0 0 -7 -7 -12 -15 -12 -8 0 -15 5 -15 10 0 6 -12 23
-28 38 -15 15 -45 50 -66 77 -22 28 -45 55 -51 60 -22 20 -123 172 -156 235
-79 148 -137 309 -181 501 -20 87 -21 125 -24 509 -3 466 7 626 57 920 11 66
43 189 58 225 13 29 34 133 37 177 1 21 5 73 8 115 3 43 9 129 12 192 3 62 12
131 20 153 8 22 14 55 14 72 0 17 7 40 15 50 8 11 15 29 15 40 0 12 7 40 15
63 8 23 17 57 20 75 3 18 12 39 19 48 7 8 13 28 14 43 1 15 9 41 17 57 8 16
15 35 15 42 0 36 72 183 109 224 23 24 41 47 41 51 0 5 23 31 50 60 28 29 50
59 50 67 0 8 8 17 18 20 24 8 82 59 82 73 0 14 71 36 99 31 10 -2 25 3 34 10
9 8 31 15 49 16 18 2 39 4 46 5 6 0 12 13 12 27 0 23 2 25 16 14 8 -8 32 -15
52 -16z m2983 -20 l34 -36 -35 17 c-34 17 -50 32 -50 48 0 16 18 5 51 -29z m0
-241 c6 -20 27 -64 46 -100 41 -75 39 -103 -3 -47 -16 21 -36 45 -44 52 -11
10 -12 15 -3 18 8 4 9 12 4 22 -24 49 -51 114 -51 124 0 20 39 -33 51 -69z
m99 -2 c0 -5 3 -17 6 -25 5 -12 2 -15 -10 -10 -17 7 -22 44 -6 44 6 0 10 -4
10 -9z m-657 -258 l-10 -68 -1 100 c0 82 2 94 10 68 7 -21 7 -54 1 -100z m467
71 c0 -8 -4 -12 -10 -9 -5 3 -10 13 -10 21 0 8 5 12 10 9 6 -3 10 -13 10 -21z
m130 -11 c5 -21 13 -56 16 -78 7 -55 -12 -24 -32 51 -17 65 -17 64 -4 64 5 0
14 -17 20 -37z m-130 -39 c0 -8 -5 -12 -10 -9 -6 4 -8 11 -5 16 9 14 15 11 15
-7z m197 -66 c-3 -8 -6 -5 -6 6 -1 11 2 17 5 13 3 -3 4 -12 1 -19z m-518 -93
c0 -43 -3 -54 -9 -40 -12 29 -12 134 0 115 5 -8 9 -42 9 -75z m188 53 c-3 -7
-5 -2 -5 12 0 14 2 19 5 13 2 -7 2 -19 0 -25z m233 -22 c-1 -21 -1 -21 -15 -2
-21 27 -20 53 0 36 8 -7 15 -22 15 -34z m150 -39 c0 -5 -4 -5 -10 -2 -5 3 -10
14 -10 23 0 15 2 15 10 2 5 -8 10 -19 10 -23z m-40 -9 c0 -5 -4 -8 -10 -8 -5
0 -10 10 -10 23 0 18 2 19 10 7 5 -8 10 -18 10 -22z m-1273 -15 c-3 -10 -5 -4
-5 12 0 17 2 24 5 18 2 -7 2 -21 0 -30z m785 -19 c1 -31 0 -58 -4 -61 -9 -5
-9 -4 -13 65 -2 28 0 52 5 52 4 0 10 -25 12 -56z m547 -45 c13 -38 13 -39 3
-39 -9 0 -32 44 -32 60 0 22 19 8 29 -21z m-666 1 c10 0 17 -5 15 -12 -3 -7
-11 -13 -19 -13 -15 0 -15 -22 -3 -140 9 -87 -9 -58 -23 38 -16 111 -17 155
-1 139 7 -7 20 -12 31 -12z m68 -70 c10 0 19 -6 19 -12 0 -7 2 -31 5 -53 l5
-40 -14 30 c-18 36 -18 35 -6 -39 5 -32 15 -66 23 -75 17 -20 39 -104 42 -156
1 -22 7 -67 14 -100 6 -33 11 -85 11 -115 0 -33 8 -73 20 -99 11 -24 20 -51
20 -60 0 -10 7 -26 15 -37 8 -10 15 -32 15 -49 0 -16 9 -64 19 -105 10 -41 22
-94 26 -117 4 -23 20 -84 36 -134 16 -50 29 -98 29 -105 0 -8 6 -11 15 -8 9 4
15 0 15 -9 0 -29 -30 -28 -42 1 -6 15 -19 44 -29 65 -17 39 -17 39 -21 11 -3
-26 -4 -25 -30 23 -27 48 -39 121 -19 108 5 -3 15 -22 21 -43 13 -39 26 -59
35 -51 5 5 -27 115 -51 179 -7 19 -16 52 -20 72 -3 21 -12 42 -20 49 -8 6 -14
26 -14 44 0 36 -27 151 -41 175 -13 23 -11 -77 2 -102 6 -12 16 -55 21 -97 5
-42 18 -95 29 -118 16 -33 19 -53 14 -100 -4 -40 -1 -74 9 -108 20 -63 20 -69
0 -61 -13 5 -15 2 -9 -11 4 -10 10 -28 12 -40 7 -29 21 -30 25 -2 l3 21 25
-21 c18 -15 22 -23 13 -29 -16 -10 -6 -77 13 -93 8 -6 14 -21 14 -34 0 -12 11
-44 25 -71 14 -27 25 -55 25 -61 0 -21 -16 -15 -29 10 -6 12 -20 36 -30 52
-11 17 -20 38 -20 48 -1 10 -5 16 -10 12 -6 -3 3 -37 20 -77 71 -172 3 -75
-78 112 -29 67 -33 77 -59 179 -13 52 -36 119 -50 148 -15 33 -23 62 -19 74 4
12 -2 34 -14 55 -11 19 -20 45 -20 57 2 31 -22 169 -32 188 -5 9 -11 63 -13
119 -3 57 -10 106 -16 110 -7 4 -10 50 -8 127 2 88 -1 124 -10 136 -15 17 -6
45 9 30 5 -5 18 -49 28 -98 42 -189 48 -208 63 -182 5 9 4 34 -2 59 -10 45
-33 256 -34 315 -1 21 -6 33 -15 33 -13 0 -12 18 6 100 l8 35 3 -32 c2 -25 8
-33 23 -33z m189 34 c0 -8 -4 -12 -10 -9 -5 3 -10 13 -10 21 0 8 5 12 10 9 6
-3 10 -13 10 -21z m-1170 -79 c0 -23 -3 -27 -10 -15 -5 8 -10 29 -10 45 0 23
3 27 10 15 5 -8 10 -28 10 -45z m1175 1 c-6 -28 -3 -35 19 -50 14 -9 26 -21
26 -27 0 -8 -5 -7 -15 1 -13 11 -15 7 -15 -29 0 -33 3 -41 19 -41 10 0 21 9
24 20 6 23 37 27 37 5 0 -7 -8 -18 -17 -23 -14 -8 -15 -14 -4 -41 12 -28 45
-50 58 -37 5 5 -9 128 -23 206 -2 14 3 7 11 -14 13 -35 28 -100 42 -193 3 -20
12 -33 24 -36 11 -3 19 -14 19 -27 0 -16 4 -20 15 -16 19 7 20 -22 1 -46 -16
-22 -56 -24 -56 -4 0 8 5 18 10 21 14 8 13 21 -3 37 -8 7 -19 24 -26 36 -7 12
-16 20 -21 17 -6 -4 -4 -17 4 -33 16 -32 22 -80 12 -104 -4 -9 -4 -23 0 -29 5
-9 9 -8 14 5 3 10 10 18 15 19 10 2 11 -1 13 -61 2 -42 22 -32 23 11 0 30 1
31 11 10 13 -26 27 -30 33 -8 16 51 14 49 34 31 11 -10 21 -32 24 -49 3 -18
17 -68 32 -112 15 -44 34 -103 43 -132 22 -73 26 -60 6 23 -22 89 -26 238 -7
222 8 -6 13 -18 12 -27 -3 -38 0 -44 17 -30 14 11 15 4 11 -72 -2 -46 0 -95 6
-109 5 -14 16 -38 23 -55 19 -46 67 -255 59 -263 -9 -10 -23 17 -41 81 -9 32
-21 60 -25 63 -12 7 -12 -22 0 -44 14 -29 21 -82 10 -82 -5 0 -17 15 -25 33
-15 31 -15 31 -9 -33 l5 -65 -16 35 -16 35 -12 -28 -12 -27 -22 30 c-13 16
-27 30 -32 30 -10 0 -5 -104 11 -193 15 -86 6 -83 -33 11 -7 17 -16 32 -20 32
-5 0 -8 11 -8 24 0 14 -5 28 -11 32 -6 3 -8 17 -5 29 7 27 -1 55 -16 55 -16 0
-38 27 -38 47 0 11 -4 23 -9 28 -14 15 -51 117 -51 141 0 23 -23 48 -33 37
-10 -10 -8 -68 3 -97 6 -16 6 -27 0 -31 -13 -8 -13 -45 -1 -45 5 0 12 8 16 18
6 16 7 16 21 -2 8 -11 14 -30 14 -42 0 -12 6 -27 14 -33 7 -6 16 -25 19 -41 4
-16 17 -46 30 -67 13 -21 22 -44 19 -51 -2 -8 1 -25 9 -38 7 -13 10 -26 7 -29
-6 -6 -58 91 -58 108 0 6 -6 18 -13 26 -7 9 -21 41 -30 73 -10 31 -25 59 -33
62 -14 5 -15 1 -9 -21 47 -189 47 -319 1 -247 -12 18 -16 36 -12 59 7 37 -1
65 -18 65 -14 0 -46 104 -46 149 0 16 -9 51 -21 77 -11 27 -18 57 -15 68 3 11
1 26 -5 32 -7 9 -7 19 0 32 7 13 7 30 2 49 -5 15 -13 55 -17 88 -5 36 -9 50
-12 35 -7 -43 -20 -44 -27 -1 -4 25 -2 54 6 76 11 30 11 51 -3 131 -17 102
-24 117 -38 94 -7 -11 -10 0 -10 34 0 39 3 47 15 42 12 -4 15 3 15 35 0 31 4
41 21 47 19 7 19 9 5 21 -18 15 -22 41 -6 41 6 0 10 9 10 19 0 38 10 51 31 40
16 -8 18 -17 14 -43z m315 2 c0 -5 -4 -8 -10 -8 -5 0 -10 10 -10 23 0 18 2 19
10 7 5 -8 10 -18 10 -22z m-754 -135 c19 -112 21 -140 12 -220 -9 -79 -8 -99
7 -145 10 -29 19 -84 20 -123 2 -38 13 -115 25 -170 20 -92 26 -119 45 -184 6
-20 4 -23 -10 -17 -13 5 -16 2 -10 -11 4 -10 13 -43 21 -73 8 -30 18 -64 23
-75 34 -79 72 -226 66 -254 -7 -31 -19 -39 -30 -21 -4 6 -2 17 5 25 13 15 -12
119 -36 146 -8 8 -14 32 -14 52 0 20 -4 37 -10 37 -5 0 -10 -9 -10 -20 0 -25
-5 -25 -32 0 -30 28 -58 120 -65 215 -7 93 2 95 22 4 31 -141 54 -203 69 -188
5 5 -2 35 -33 144 -11 39 -21 82 -21 98 0 17 -5 27 -15 27 -8 0 -15 7 -15 15
0 8 -6 12 -13 10 -6 -3 -17 7 -23 22 -15 36 -34 137 -34 177 l1 31 14 -25 c7
-14 17 -47 20 -73 4 -26 13 -53 20 -60 6 -6 10 -21 8 -32 -4 -19 -4 -19 10 -2
13 16 13 28 -5 105 -11 48 -24 110 -28 138 -4 29 -11 62 -15 74 -4 12 -11 66
-16 119 -16 175 -28 284 -33 298 -4 9 -1 13 6 11 7 -3 15 -19 19 -37 14 -66
22 -43 15 44 -10 131 12 97 40 -62z m504 93 c-13 -13 -30 9 -30 39 1 19 2 18
21 -4 14 -17 17 -27 9 -35z m301 -15 c0 -10 2 -12 6 -3 6 15 23 16 23 2 0 -6
-8 -20 -19 -31 -18 -20 -18 -20 -29 8 -6 15 -14 39 -18 53 -7 25 -7 25 15 6
11 -11 21 -26 22 -35z m-1371 -90 c0 -64 -17 -18 -23 59 l-5 75 14 -50 c7 -27
14 -66 14 -84z m317 72 c-3 -10 -5 -4 -5 12 0 17 2 24 5 18 2 -7 2 -21 0 -30z
m-70 -20 c-3 -10 -5 -4 -5 12 0 17 2 24 5 18 2 -7 2 -21 0 -30z m958 -20 c3
-32 8 -73 11 -90 6 -37 -11 -46 -19 -10 -13 55 -19 157 -9 157 6 0 13 -26 17
-57z m-952 -16 c3 -8 1 -20 -4 -28 -6 -10 -9 -7 -9 14 0 29 5 35 13 14z m91
-39 c3 -13 6 -34 6 -48 0 -14 12 -43 26 -64 24 -34 26 -44 20 -96 -4 -37 -3
-61 4 -65 5 -3 10 -25 10 -48 0 -24 7 -52 15 -65 18 -25 33 -122 18 -122 -5 0
-14 5 -21 12 -16 16 -15 -3 2 -24 10 -13 15 -15 24 -6 9 9 12 7 12 -8 0 -12 9
-47 19 -80 11 -32 23 -81 27 -108 6 -42 5 -48 -9 -43 -9 3 -18 -1 -21 -9 -10
-27 -7 -44 9 -44 8 0 15 -6 15 -14 0 -8 7 -16 15 -20 8 -3 15 -15 15 -26 0
-12 -4 -18 -10 -15 -5 3 -10 -3 -10 -14 0 -25 20 -39 21 -14 0 10 7 -2 14 -27
8 -25 19 -54 24 -65 5 -11 17 -47 26 -80 9 -33 24 -75 32 -94 9 -19 30 -75 48
-125 18 -50 46 -116 62 -146 16 -30 35 -70 41 -89 10 -29 10 -32 -3 -21 -24
20 -18 -3 23 -88 48 -100 79 -143 97 -136 7 3 11 12 8 20 -3 8 0 14 6 14 6 0
11 -2 11 -4 0 -2 3 -11 6 -20 4 -10 1 -16 -9 -16 -8 0 -17 -5 -19 -11 -7 -21
-44 1 -61 36 -25 51 -127 205 -136 205 -5 0 -2 -22 6 -50 8 -27 13 -58 11 -67
-7 -32 -38 56 -38 107 0 39 4 49 25 60 19 10 22 17 14 31 -5 11 -17 19 -25 19
-13 0 -15 -6 -9 -27 l7 -28 -25 23 c-27 26 -44 87 -29 105 11 13 -11 41 -22
30 -3 -4 -6 1 -6 10 0 9 -6 20 -13 24 -14 9 -37 70 -37 97 0 10 -6 30 -14 44
-8 15 -20 54 -26 87 -7 33 -19 67 -27 77 -8 9 -16 36 -18 60 -2 23 -10 63 -19
87 -19 50 -21 88 -5 93 6 2 1 20 -14 46 -21 37 -23 49 -16 99 4 32 4 60 0 63
-4 3 -11 12 -14 20 -4 12 -6 12 -7 -2 -4 -33 -5 -36 -11 -42 -3 -3 -11 37 -19
90 -10 76 -10 98 -1 104 9 5 11 22 6 56 -17 134 -27 201 -31 222 -6 29 -24 19
-24 -14 0 -13 -5 -24 -11 -24 -14 0 -4 77 12 97 7 7 8 29 4 53 -7 43 8 57 19
18z m328 -22 c2 -19 0 -32 -4 -30 -8 5 -12 64 -4 64 2 0 6 -15 8 -34z m-192
-58 c6 -47 4 -56 -16 -81 l-24 -29 0 41 c0 23 4 41 10 41 5 0 7 22 3 53 -5 42
-3 50 7 40 8 -7 17 -36 20 -65z m-280 -6 c0 -15 -2 -15 -10 -2 -13 20 -13 33
0 25 6 -3 10 -14 10 -23z m517 -4 c-3 -7 -5 -2 -5 12 0 14 2 19 5 13 2 -7 2
-19 0 -25z m-658 -103 c-1 -15 -4 -13 -14 10 -8 17 -14 48 -14 70 l0 40 14
-50 c8 -27 14 -59 14 -70z m557 24 c-3 -34 -6 -71 -6 -83 -1 -18 -2 -19 -10
-5 -12 20 -1 149 13 149 6 0 7 -23 3 -61z m-602 -14 l5 -40 -14 30 c-16 35
-20 74 -5 59 5 -5 12 -27 14 -49z m1276 4 c0 -11 -4 -18 -10 -14 -5 3 -7 12
-3 20 7 21 13 19 13 -6z m288 2 c3 -8 -1 -12 -9 -9 -7 2 -15 10 -17 17 -3 8 1
12 9 9 7 -2 15 -10 17 -17z m-1305 -16 c3 -16 0 -24 -7 -22 -14 4 -21 47 -8
47 5 0 12 -11 15 -25z m231 -46 c6 -30 8 -90 5 -134 -3 -44 -6 -66 -7 -48 -1
17 -6 53 -12 80 -19 98 -27 153 -22 158 14 14 27 -6 36 -56z m-465 -64 c1 -16
-1 -17 -9 -5 -5 8 -9 29 -9 45 1 29 1 29 9 5 4 -14 8 -34 9 -45z m262 -50 c7
-49 12 -94 12 -100 -5 -44 -15 -85 -22 -85 -12 0 -31 48 -30 78 0 26 1 25 14
-8 7 -19 14 -30 16 -25 6 33 4 77 -7 125 -15 63 -18 144 -5 120 5 -8 15 -55
22 -105z m149 69 c0 -21 -4 -33 -10 -29 -5 3 -10 19 -10 36 0 16 5 29 10 29 6
0 10 -16 10 -36z m497 14 c-3 -8 -6 -5 -6 6 -1 11 2 17 5 13 3 -3 4 -12 1 -19z
m-870 -25 c-3 -10 -5 -4 -5 12 0 17 2 24 5 18 2 -7 2 -21 0 -30z m1260 5 c-3
-7 -5 -2 -5 12 0 14 2 19 5 13 2 -7 2 -19 0 -25z m113 2 c0 -5 -2 -10 -4 -10
-3 0 -8 5 -11 10 -3 6 -1 10 4 10 6 0 11 -4 11 -10z m-765 -53 c3 -23 8 -54
11 -69 3 -16 1 -28 -4 -28 -5 0 -12 21 -16 48 -3 26 -9 60 -13 76 -4 19 -2 27
5 22 5 -3 13 -25 17 -49z m-50 -22 c5 -29 4 -37 -5 -29 -6 6 -13 28 -17 50 -8
52 12 33 22 -21z m-582 -64 c6 -91 -8 -72 -18 24 -5 46 -4 67 3 60 5 -5 12
-43 15 -84z m304 37 c-3 -8 -6 -5 -6 6 -1 11 2 17 5 13 3 -3 4 -12 1 -19z
m-211 -144 c6 -62 -10 -67 -19 -7 -4 21 -10 51 -13 68 -7 28 -6 29 10 12 11
-10 19 -39 22 -73z m581 54 c-3 -7 -5 -2 -5 12 0 14 2 19 5 13 2 -7 2 -19 0
-25z m-247 12 c0 -5 -2 -10 -4 -10 -3 0 -8 5 -11 10 -3 6 -1 10 4 10 6 0 11
-4 11 -10z m190 -49 c0 -35 -18 -14 -26 29 -6 33 -6 34 9 15 9 -11 17 -31 17
-44z m85 -125 c4 -38 10 -77 13 -85 5 -14 3 -14 -11 -2 -15 12 -17 10 -17 -23
0 -20 4 -44 9 -54 5 -9 16 -42 24 -72 9 -30 16 -44 16 -32 1 14 6 22 14 20 14
-5 29 -101 20 -135 -3 -13 1 -29 11 -38 9 -9 16 -23 16 -30 0 -7 7 -15 16 -17
10 -2 22 -21 30 -46 12 -42 12 -43 -9 -40 -14 2 -31 20 -46 47 -13 24 -33 53
-43 63 -12 12 -18 33 -18 63 0 24 -4 54 -9 67 -5 13 -16 48 -26 78 -10 30 -27
70 -38 89 -16 26 -18 37 -9 51 8 13 8 29 1 55 -17 61 -27 135 -18 135 5 0 9
-4 9 -10 0 -19 19 -10 26 12 l7 22 12 -25 c7 -13 16 -55 20 -93z m-698 37 c-2
-16 -4 -5 -4 22 0 28 2 40 4 28 2 -13 2 -35 0 -50z m294 -102 c-12 -12 -23
-21 -25 -21 -8 0 -26 64 -26 92 l0 28 36 -39 35 -40 -20 -20z m49 80 c0 -6 -4
-13 -10 -16 -5 -3 -10 1 -10 9 0 9 5 16 10 16 6 0 10 -4 10 -9z m-28 -218 c-9
-14 -10 -14 -16 5 -9 29 3 51 16 28 5 -10 5 -23 0 -33z m-287 -130 l-8 -58
-13 35 c-16 45 -17 89 -2 131 l12 34 9 -42 c5 -23 6 -68 2 -100z m322 105 c-3
-8 -6 -5 -6 6 -1 11 2 17 5 13 3 -3 4 -12 1 -19z m-402 -14 c29 -7 44 -47 26
-68 -13 -16 -111 -13 -186 5 -22 6 -62 12 -90 15 -62 6 -75 10 -75 24 0 7 11
9 28 6 15 -3 43 1 62 8 38 14 194 20 235 10z m387 -33 c-1 -7 4 -35 13 -63 8
-29 15 -63 14 -77 0 -21 -4 -16 -20 23 -27 67 -37 140 -18 134 8 -3 13 -11 11
-17z m-145 -98 c-3 -10 -5 -4 -5 12 0 17 2 24 5 18 2 -7 2 -21 0 -30z m240
-63 c6 -16 7 -30 2 -30 -9 0 -29 33 -29 49 0 22 16 10 27 -19z m-748 -130 c8
-14 22 -36 32 -49 35 -44 -7 -55 -83 -21 -41 18 -98 80 -98 106 0 21 58 78 91
89 l34 12 5 -56 c3 -31 12 -67 19 -81z m961 38 c7 -24 16 -46 20 -51 4 -4 4
-22 2 -39 -4 -29 -7 -27 -28 38 -26 74 -29 94 -16 94 5 0 15 -19 22 -42z
m-880 16 c0 -17 -22 -14 -28 4 -2 7 3 12 12 12 9 0 16 -7 16 -16z m1378 -46
c16 -39 -4 -36 -28 5 -26 42 -27 69 -2 42 10 -11 24 -32 30 -47z m-1638 -20
c0 -18 -2 -20 -9 -8 -6 8 -7 18 -5 22 9 14 14 9 14 -14z m900 -36 c0 -7 -4
-10 -10 -7 -5 3 -10 16 -10 28 0 18 2 19 10 7 5 -8 10 -21 10 -28z m360 -59
c13 -32 31 -69 40 -83 21 -30 34 -80 21 -80 -13 0 -37 40 -56 96 -9 27 -25 64
-36 82 -10 18 -19 40 -19 49 0 29 25 -3 50 -64z m-269 9 c11 -14 51 -143 45
-149 -2 -2 -14 22 -27 54 -12 32 -31 72 -41 88 -22 37 -25 70 -3 40 8 -11 19
-26 26 -33z m392 27 c3 -13 1 -19 -6 -16 -15 5 -22 37 -9 37 5 0 12 -9 15 -21z
m-208 -29 c3 -5 1 -10 -4 -10 -6 0 -11 5 -11 10 0 6 2 10 4 10 3 0 8 -4 11
-10z m-1095 -20 c0 -5 -2 -10 -4 -10 -3 0 -8 5 -11 10 -3 6 -1 10 4 10 6 0 11
-4 11 -10z m480 -38 c0 -15 -2 -15 -10 -2 -13 20 -13 33 0 25 6 -3 10 -14 10
-23z m7 -74 c-3 -7 -5 -2 -5 12 0 14 2 19 5 13 2 -7 2 -19 0 -25z m675 15 c10
-9 18 -21 18 -27 0 -6 12 -22 25 -35 15 -14 25 -34 25 -52 0 -38 -25 -39 -35
-1 -3 15 -13 34 -20 42 -16 19 -46 90 -38 90 4 0 15 -7 25 -17z m-172 -78 c7
-9 8 -15 2 -15 -5 0 -12 7 -16 15 -3 8 -4 15 -2 15 2 0 9 -7 16 -15z m309 -76
c7 -21 7 -29 -2 -29 -13 0 -37 45 -37 68 0 23 27 -4 39 -39z m41 -63 c0 -8 -4
-18 -10 -21 -5 -3 -10 3 -10 14 0 12 5 21 10 21 6 0 10 -6 10 -14z m781 -77
c7 -84 5 -99 -8 -85 -12 12 -20 177 -8 173 6 -2 13 -41 16 -88z m-1128 10 c4
-16 3 -18 -8 -9 -7 6 -15 20 -18 31 -4 16 -3 18 8 9 7 -6 15 -20 18 -31z m243
14 c22 -30 16 -52 -6 -24 -20 23 -26 41 -14 41 4 0 13 -8 20 -17z m984 -120
c0 -21 -3 -24 -9 -14 -5 8 -7 20 -4 28 8 21 13 15 13 -14z m58 -48 c12 -33 24
-68 27 -77 4 -10 3 -18 -3 -18 -10 0 -52 115 -52 145 0 27 6 17 28 -50z
m-1214 30 c9 -33 -1 -50 -20 -34 -18 15 -18 59 0 59 8 0 17 -11 20 -25z m1063
-17 c-3 -7 -5 -2 -5 12 0 14 2 19 5 13 2 -7 2 -19 0 -25z m73 -26 c0 -15 -2
-15 -10 -2 -13 20 -13 33 0 25 6 -3 10 -14 10 -23z m-1034 -139 c-3 -3 -11 7
-18 23 -7 16 -20 40 -30 53 -10 13 -15 28 -11 34 3 5 19 -16 35 -47 16 -32 27
-60 24 -63z m974 97 c0 -5 -4 -10 -10 -10 -5 0 -10 5 -10 10 0 6 5 10 10 10 6
0 10 -4 10 -10z m-779 -142 c19 -21 25 -38 13 -38 -8 0 -43 43 -44 53 0 13 12
7 31 -15z m453 -36 c-8 -18 -13 -40 -11 -50 4 -14 6 -14 12 5 4 13 11 20 16
18 4 -3 4 -17 -1 -31 -6 -14 -9 -45 -8 -70 0 -24 -2 -47 -5 -51 -4 -3 -7 19
-7 50 0 55 -1 57 -20 45 -12 -7 -23 -24 -27 -36 -7 -31 -23 -10 -23 32 0 20 4
27 14 23 10 -4 13 -1 10 7 -9 24 15 94 34 99 28 6 33 -7 16 -41z m-149 -251
c3 -5 1 -12 -5 -16 -5 -3 -10 1 -10 9 0 18 6 21 15 7z m-372 -783 c4 -62 9
-161 13 -219 4 -65 3 -108 -3 -112 -11 -7 -45 165 -46 228 0 71 16 225 23 220
4 -2 10 -55 13 -117z m1417 -48 c0 -11 -4 -20 -10 -20 -5 0 -10 2 -10 4 0 2
-3 11 -6 20 -4 11 -1 16 10 16 9 0 16 -8 16 -20z m60 -315 c0 -8 -6 -12 -14
-9 -8 3 -12 12 -9 20 6 17 23 9 23 -11z m-645 -365 c3 -5 2 -10 -4 -10 -5 0
-13 5 -16 10 -3 6 -2 10 4 10 5 0 13 -4 16 -10z m-65 -87 c0 -7 -4 -13 -10
-13 -5 0 -10 12 -10 28 0 21 2 24 10 12 5 -8 10 -21 10 -27z m-75 18 c3 -5 1
-12 -5 -16 -5 -3 -10 1 -10 9 0 18 6 21 15 7z m1035 -11 c0 -5 -5 -10 -11 -10
-5 0 -7 5 -4 10 3 6 8 10 11 10 2 0 4 -4 4 -10z m-814 -86 c8 -45 0 -53 -21
-20 -10 15 -14 33 -10 46 9 28 23 16 31 -26z m771 14 c-3 -8 -6 -5 -6 6 -1 11
2 17 5 13 3 -3 4 -12 1 -19z m-2767 -82 c0 -13 56 -46 77 -46 24 0 30 -23 12
-41 -10 -10 -19 -30 -19 -44 0 -14 -5 -25 -11 -25 -8 0 -8 -4 0 -14 9 -10 8
-16 -4 -26 -19 -16 -19 -39 0 -46 8 -4 15 -12 15 -20 0 -8 -6 -11 -15 -8 -8 4
-15 1 -15 -5 0 -6 6 -11 14 -11 9 0 12 -7 9 -19 -3 -14 2 -20 24 -26 15 -4 22
-10 15 -12 -18 -7 5 -33 29 -33 22 0 34 -16 38 -51 0 -6 10 -8 22 -4 22 7 23
0 7 -90 -2 -16 2 -19 22 -17 14 1 30 9 36 17 6 8 28 17 50 20 21 3 45 8 52 10
7 3 12 -4 12 -15 0 -11 -4 -20 -10 -20 -5 0 -10 -15 -10 -34 0 -31 3 -34 35
-40 34 -7 48 -30 23 -39 -10 -3 -10 -11 0 -40 7 -20 10 -43 6 -49 -4 -7 2 -4
14 6 20 17 27 15 23 -7 -1 -4 10 -13 24 -19 14 -6 25 -15 25 -19 0 -4 3 -16 6
-26 4 -12 3 -14 -3 -5 -13 18 -43 -17 -48 -57 -4 -31 -33 -80 -47 -81 -5 0 -8
-6 -8 -14 0 -8 -3 -16 -7 -18 -5 -1 -37 -39 -73 -83 -96 -118 -102 -125 -141
-169 -19 -23 -71 -84 -114 -136 -44 -52 -84 -100 -90 -106 -5 -6 -50 -57 -99
-112 -94 -109 -86 -104 -231 -137 -160 -36 -205 -44 -300 -59 -55 -8 -138 -21
-185 -28 -50 -7 -181 -13 -315 -13 -190 0 -235 3 -260 16 -16 8 -39 14 -50 12
-15 -3 -17 -2 -6 5 15 11 7 14 -56 27 -17 3 -37 13 -44 21 -6 8 -17 14 -23 14
-17 0 -76 60 -76 77 0 19 -27 28 -45 13 -10 -9 -15 -9 -15 -1 0 6 -7 11 -15
11 -9 0 -20 11 -25 25 -6 16 -17 25 -31 25 -19 0 -21 4 -14 38 3 20 8 53 9 73
2 20 6 40 9 46 3 5 9 37 13 71 3 34 11 62 16 62 5 0 7 9 3 19 -3 11 -1 22 5
26 5 3 10 15 10 27 0 11 8 22 19 25 11 3 27 20 36 39 16 34 48 59 64 50 5 -3
11 8 15 25 6 32 43 79 62 79 22 0 52 47 47 74 -3 16 -1 26 7 26 17 0 42 28 35
40 -3 5 -1 10 5 10 7 0 10 7 6 15 -3 8 2 19 12 24 9 5 16 12 15 15 -7 15 -2
46 6 41 11 -6 34 29 25 37 -7 8 17 60 37 80 10 10 15 26 12 38 -5 19 -4 19 23
5 46 -24 58 -20 41 13 -7 15 -21 42 -30 60 -19 37 -23 77 -7 67 6 -3 10 -1 10
4 0 6 -4 11 -8 11 -4 0 -13 13 -19 30 -13 35 3 53 23 26 8 -11 14 -13 19 -7 3
6 1 11 -4 11 -6 0 -11 9 -11 19 0 11 -5 21 -10 23 -6 2 -12 24 -14 50 -2 25
-7 51 -10 57 -4 6 -5 15 -1 20 3 5 0 13 -6 17 -8 4 -7 9 2 15 10 6 11 9 2 9
-9 0 -13 17 -13 53 0 41 -4 55 -20 65 -11 7 -20 20 -20 29 0 14 5 12 25 -10
14 -15 35 -27 45 -27 11 0 20 -5 20 -11 0 -5 20 -19 45 -30 24 -11 47 -24 50
-29 10 -17 29 -11 44 13 13 21 13 21 -3 7 -16 -13 -20 -12 -32 5 -10 13 -11
22 -3 32 9 10 17 9 41 -8 17 -12 37 -19 49 -16 14 4 19 2 15 -8 -7 -19 4 -26
25 -14 14 7 29 4 60 -12 43 -21 149 -35 149 -18 0 5 7 9 15 9 8 0 15 -4 15 -9
0 -4 22 -8 50 -8 48 0 49 0 35 21 -20 28 -19 31 10 32 19 2 27 -4 31 -22 7
-27 5 -27 58 -14 25 5 46 5 58 -1 21 -11 100 12 124 36 8 8 22 11 30 8 8 -3
25 -1 37 5 70 33 97 41 135 40 23 0 49 5 57 12 8 7 15 9 15 6 0 -4 10 -1 23 6
12 7 51 15 87 19 36 3 71 7 78 7 6 1 12 -4 12 -12z m-1220 -45 c0 -6 -4 -13
-10 -16 -5 -3 -10 1 -10 9 0 9 5 16 10 16 6 0 10 -4 10 -9z m-2150 -230 c0 -6
-4 -13 -10 -16 -5 -3 -10 1 -10 9 0 9 5 16 10 16 6 0 10 -4 10 -9z m6454 -187
c3 -8 2 -12 -4 -9 -6 3 -10 10 -10 16 0 14 7 11 14 -7z m-278 -62 c-12 -12
-18 8 -10 35 l8 28 4 -28 c2 -16 1 -31 -2 -35z m368 3 c3 -8 1 -15 -4 -15 -6
0 -10 7 -10 15 0 8 2 15 4 15 2 0 6 -7 10 -15z m35 -85 c0 -9 -6 -4 -14 10 -8
14 -14 32 -14 40 0 9 6 4 14 -10 8 -14 14 -32 14 -40z m-23 -77 c-8 -8 -12 -3
-21 27 l-7 25 17 -23 c9 -13 14 -26 11 -29z m52 -37 c-12 -27 -23 -33 -33 -16
-3 6 1 10 11 10 14 0 16 7 10 43 -6 41 -6 42 9 15 12 -21 13 -32 3 -52z m53
12 c21 -60 24 -88 9 -88 -5 0 -10 11 -10 24 0 13 -7 29 -15 36 -9 7 -15 29
-15 53 0 49 7 43 31 -25z m-41 -67 c0 -11 -4 -23 -10 -26 -6 -4 -10 5 -10 19
0 14 5 26 10 26 6 0 10 -9 10 -19z m-2595 -72 c-9 -14 29 -49 54 -49 11 0 23
-4 26 -10 4 -6 16 -4 31 6 23 15 24 15 24 -4 0 -11 7 -27 15 -36 8 -8 15 -20
15 -26 0 -7 7 -9 16 -6 9 3 20 6 25 6 6 0 7 5 4 10 -4 6 5 10 19 10 28 0 31
-17 6 -37 -12 -9 -13 -14 -2 -24 10 -11 12 -10 12 3 0 17 24 31 34 21 12 -12
6 -33 -16 -52 -20 -20 -20 -21 -2 -28 33 -12 45 -31 38 -58 -3 -14 -10 -25
-15 -25 -5 0 -9 -8 -9 -18 0 -17 -32 -52 -49 -52 -5 0 -11 -9 -14 -20 -3 -11
-13 -20 -22 -20 -9 0 -14 -4 -11 -9 3 -5 16 -7 29 -4 34 7 -86 -50 -213 -101
-63 -26 -129 -53 -147 -61 -17 -8 -38 -15 -47 -15 -9 0 -24 -5 -34 -10 -21
-12 -171 -68 -232 -85 -25 -8 -97 -32 -160 -55 -157 -57 -150 -55 -150 -36 0
9 4 16 8 16 8 0 58 49 125 123 19 20 39 37 46 37 6 0 11 6 11 13 0 7 13 21 30
30 16 10 33 29 36 42 3 13 10 23 16 22 5 -1 18 13 27 30 10 18 20 30 23 28 7
-7 86 80 198 218 52 64 105 119 117 123 12 3 20 11 17 18 -7 18 16 41 66 70
49 27 65 32 55 15z m1592 -102 c24 -17 43 -34 43 -39 0 -4 30 -22 66 -39 36
-17 68 -38 71 -46 3 -8 16 -18 29 -23 12 -5 21 -16 20 -24 -3 -24 -14 -30 -31
-16 -12 10 -19 10 -27 2 -20 -20 -29 -14 -22 14 6 23 4 26 -17 24 -51 -4 -79
0 -79 14 0 14 -110 123 -144 142 -11 6 -20 18 -22 27 -3 22 60 2 113 -36z m93
18 c0 -30 -20 -33 -44 -6 -17 18 -17 19 1 24 36 9 43 7 43 -18z m120 -59 c0
-3 -4 -8 -10 -11 -5 -3 -10 -1 -10 4 0 6 5 11 10 11 6 0 10 -2 10 -4z m75 -56
c15 -6 41 -25 58 -43 18 -18 43 -40 57 -49 24 -17 24 -17 3 -17 -12 -1 -28 8
-36 19 -7 11 -35 29 -60 40 -26 12 -51 30 -57 40 -12 23 -4 25 35 10z m765
-50 c0 -5 -4 -10 -10 -10 -5 0 -10 5 -10 10 0 6 5 10 10 10 6 0 10 -4 10 -10z
m100 -440 c0 -5 -2 -10 -4 -10 -3 0 -8 5 -11 10 -3 6 -1 10 4 10 6 0 11 -4 11
-10z m-3530 -110 c0 -5 -5 -10 -11 -10 -5 0 -7 5 -4 10 3 6 8 10 11 10 2 0 4
-4 4 -10z m-4217 -852 c-7 -27 -22 -48 -34 -48 -15 0 21 68 38 70 0 0 -1 -10
-4 -22z m1520 -386 c-3 -12 -9 -22 -14 -22 -5 0 -3 11 3 25 13 30 20 28 11 -3z
m-32 -69 c-12 -20 -14 -14 -5 12 4 9 9 14 11 11 3 -2 0 -13 -6 -23z"/>
<path d="M3480 6633 c-92 -24 -122 -27 -130 -12 -7 10 -14 7 -33 -11 -14 -13
-23 -30 -20 -37 7 -17 -27 -29 -37 -13 -8 13 -62 1 -110 -27 -14 -7 -40 -21
-57 -30 -36 -18 -41 -34 -17 -54 12 -10 22 -10 50 0 21 8 51 10 76 6 38 -7 53
-3 110 26 24 12 75 11 83 -1 3 -5 28 -10 56 -10 46 0 148 -40 157 -62 2 -4 13
-8 25 -8 32 0 45 -12 45 -42 -1 -31 -1 -31 -93 -48 -186 -33 -229 -47 -293
-95 -53 -40 -92 -96 -92 -134 0 -11 -4 -21 -9 -23 -5 -1 -11 -10 -13 -18 -3
-16 1 -17 75 -19 29 -1 46 -5 42 -11 -8 -13 18 -13 31 0 14 14 138 -38 150
-63 5 -11 16 -24 24 -28 59 -32 107 -48 123 -43 11 3 22 1 26 -5 4 -5 31 -17
61 -24 42 -11 58 -20 68 -40 15 -31 48 -52 57 -37 6 10 74 8 93 -4 18 -11 58
4 81 30 25 29 26 40 6 48 -8 3 -15 17 -15 31 0 19 8 28 35 39 28 12 35 20 35
43 0 15 -9 42 -20 58 -26 40 -25 47 8 43 20 -2 26 -8 24 -21 -3 -19 32 -57 53
-57 19 0 5 50 -14 50 -14 1 -14 2 2 11 9 5 17 19 17 30 0 11 12 32 26 46 24
24 25 29 15 64 -6 21 -23 52 -38 69 -30 36 -58 147 -41 167 17 20 -1 51 -33
58 -17 4 -53 29 -81 57 -31 31 -55 47 -65 44 -14 -6 -75 6 -223 44 -103 26
-156 29 -220 13z m33 -507 c6 -57 21 -91 63 -143 l27 -33 -37 0 c-45 0 -104
24 -112 45 -3 8 -12 15 -19 15 -22 0 -47 65 -35 92 14 34 34 56 61 67 41 17
46 13 52 -43z m127 -26 c0 -5 -4 -10 -10 -10 -5 0 -10 5 -10 10 0 6 5 10 10
10 6 0 10 -4 10 -10z m220 -90 c-8 -5 -11 -10 -6 -10 5 0 3 -7 -4 -15 -12 -15
-50 -21 -50 -8 0 15 35 43 54 43 17 0 18 -2 6 -10z"/>
<path d="M4956 5243 c-3 -10 -8 -59 -12 -109 l-6 -90 47 -18 c34 -14 50 -15
58 -7 6 6 21 11 34 11 52 0 19 96 -66 193 -37 41 -47 45 -55 20z"/>
<path d="M3759 5225 c-20 -13 -39 -31 -42 -39 -4 -9 -12 -16 -20 -16 -7 0 -26
-13 -42 -30 -16 -16 -34 -30 -40 -30 -7 0 -17 -11 -23 -25 -8 -17 -20 -25 -37
-25 -21 0 -25 -5 -25 -30 0 -26 -5 -31 -30 -36 -16 -4 -37 -18 -46 -33 -21
-32 -56 -66 -78 -74 -9 -4 -15 -12 -14 -19 2 -6 -6 -14 -16 -16 -11 -2 -37
-15 -57 -28 -21 -13 -50 -26 -65 -30 -37 -9 -52 -24 -47 -45 3 -11 -5 -24 -22
-35 l-26 -17 33 -33 c18 -18 38 -34 43 -34 6 0 17 -10 25 -22 27 -39 50 -58
69 -58 11 0 28 -13 37 -29 25 -42 33 -30 27 39 -4 42 -2 60 6 60 6 0 17 11 23
25 12 26 88 75 118 75 23 0 100 57 100 74 0 17 -27 29 -32 14 -2 -6 -9 -9 -15
-5 -29 18 31 130 106 200 17 16 31 33 31 37 0 5 8 11 18 15 14 5 47 42 70 81
4 6 18 15 30 19 21 6 23 4 18 -13 -4 -12 -2 -24 5 -28 8 -5 9 -3 4 6 -4 7 -3
15 2 19 6 3 14 21 18 40 6 29 5 33 -9 28 -8 -3 -19 -1 -23 6 -21 32 -37 35
-74 12z"/>
<path d="M3972 5029 c-38 -15 -23 -41 42 -73 52 -25 60 -26 68 -12 7 12 14 13
34 6 14 -6 30 -8 34 -5 5 3 17 -6 26 -20 18 -28 51 -33 61 -10 7 19 -55 78
-112 105 -42 21 -114 25 -153 9z"/>
<path d="M5240 4834 c0 -8 -4 -13 -9 -10 -13 8 -21 -18 -11 -35 7 -11 10 -10
16 5 5 14 9 15 15 4 14 -21 10 -38 -6 -32 -29 11 -16 -37 23 -84 64 -79 75
-92 85 -92 13 0 46 -43 47 -61 0 -25 -38 -38 -148 -49 -57 -5 -108 -12 -113
-15 -4 -3 -14 -25 -20 -48 -15 -57 -27 -69 -58 -62 -22 5 -31 0 -49 -25 -27
-36 -54 -38 -75 -7 l-15 22 -10 -26 c-15 -37 -59 -86 -94 -104 -35 -17 -74
-20 -83 -6 -7 12 -145 2 -163 -12 -7 -5 -45 -13 -85 -17 -55 -6 -77 -4 -95 7
-19 12 -29 12 -53 3 -24 -10 -40 -9 -98 9 -38 11 -71 28 -75 36 -4 11 -20 15
-55 15 -68 0 -101 28 -112 96 -6 40 -4 54 10 74 28 40 57 37 100 -8 l38 -40
27 34 c30 38 54 42 111 18 39 -16 103 -9 170 20 29 12 29 13 9 24 -38 20 -159
31 -414 36 l-255 5 -116 38 -116 38 4 30 c2 17 -1 37 -9 45 -7 8 -12 13 -11
11 4 -7 -31 -30 -45 -31 -19 0 -81 -68 -78 -85 1 -8 21 -27 45 -43 23 -16 48
-40 55 -53 9 -18 18 -23 39 -21 23 3 42 -11 115 -81 145 -142 186 -177 204
-177 10 0 22 -9 28 -20 6 -11 18 -20 27 -20 9 0 21 -6 27 -14 6 -8 42 -30 80
-50 65 -34 71 -35 80 -19 6 10 11 25 11 33 0 11 11 15 35 14 44 -1 110 -31
110 -50 0 -8 17 -21 37 -29 38 -16 44 -15 106 17 10 5 22 6 27 3 6 -4 10 5 10
18 0 14 -7 27 -15 31 -8 3 -15 1 -15 -4 0 -6 -9 -6 -24 0 -15 5 -27 5 -34 -2
-6 -6 -12 -6 -16 1 -16 25 88 38 123 16 7 -4 11 -16 8 -26 -7 -26 14 -40 57
-37 43 3 46 15 9 29 -24 9 -25 11 -11 25 9 9 38 18 67 20 30 2 62 12 78 23 16
11 44 22 63 25 69 10 146 25 205 39 61 15 198 70 225 91 8 6 45 27 82 46 66
34 68 34 97 17 39 -23 49 -22 57 8 3 13 16 27 27 31 31 9 37 23 25 53 -6 14
-12 36 -13 49 -3 22 -3 22 26 5 16 -10 32 -25 35 -35 3 -10 10 -15 16 -12 12
8 4 -25 -22 -81 -17 -37 -24 -72 -21 -102 1 -10 7 -10 26 -1 17 8 27 22 31 47
4 20 13 48 20 63 8 15 18 44 22 65 5 21 14 37 20 36 8 -2 9 8 5 30 -9 52 -26
81 -56 95 -15 7 -39 32 -54 55 -46 75 -88 104 -119 84 -7 -4 -16 -1 -22 6 -10
12 -12 18 -12 37 0 6 -5 10 -11 10 -6 0 -17 7 -25 15 -9 8 -24 15 -35 15 -10
0 -19 5 -19 10 0 6 -4 10 -10 10 -5 0 -10 -7 -10 -16z m-1297 -386 c38 -26 43
-53 16 -110 -28 -59 -43 -59 -79 2 -15 25 -39 58 -53 74 -15 16 -27 34 -27 40
0 18 113 13 143 -6z"/>
<path d="M4496 4471 c-3 -5 3 -11 14 -14 13 -3 20 0 20 9 0 15 -26 19 -34 5z"/>
<path d="M4556 4463 c-3 -3 -3 -10 0 -14 7 -12 44 -12 44 0 0 10 -36 21 -44
14z"/>
<path d="M4750 4290 c0 -11 7 -20 15 -20 17 0 18 2 9 24 -9 23 -24 20 -24 -4z"/>
<path d="M4600 4060 c0 -5 5 -10 10 -10 6 0 10 5 10 10 0 6 -4 10 -10 10 -5 0
-10 -4 -10 -10z"/>
<path d="M4165 4040 c-10 -15 -3 -20 37 -26 27 -5 37 -2 41 10 5 13 1 16 -21
13 -15 -3 -32 0 -39 5 -7 6 -14 5 -18 -2z"/>
<path d="M6350 7128 c0 -7 5 -20 10 -28 8 -12 10 -11 10 7 0 12 -4 25 -10 28
-5 3 -10 0 -10 -7z"/>
<path d="M6330 6836 c0 -13 7 -27 16 -30 12 -5 15 -2 10 10 -3 8 -6 22 -6 30
0 8 -4 14 -10 14 -5 0 -10 -11 -10 -24z"/>
<path d="M6503 7118 c3 -18 11 -55 19 -83 13 -44 15 -47 21 -25 4 15 1 33 -8
47 -8 12 -15 38 -15 58 0 19 -5 35 -11 35 -7 0 -9 -12 -6 -32z"/>
<path d="M6546 6952 c-5 -29 -4 -48 3 -55 18 -18 22 -2 13 49 l-8 49 -8 -43z"/>
<path d="M6567 6843 c-4 -6 0 -25 9 -42 19 -38 26 -40 14 -3 -5 15 -10 34 -12
42 -3 9 -7 10 -11 3z"/>
<path d="M6770 6842 c0 -4 6 -16 14 -27 12 -18 21 -55 30 -124 1 -14 8 -27 15
-29 18 -6 2 105 -22 151 -17 33 -37 49 -37 29z"/>
<path d="M6721 6815 c0 -11 4 -29 8 -39 7 -18 8 -18 14 4 4 16 1 30 -8 40 -13
13 -15 12 -14 -5z"/>
<path d="M6611 6694 c0 -11 3 -14 6 -6 3 7 2 16 -1 19 -3 4 -6 -2 -5 -13z"/>
<path d="M6630 6640 c0 -11 2 -20 4 -20 2 0 6 9 9 20 3 11 1 20 -4 20 -5 0 -9
-9 -9 -20z"/>
<path d="M6853 6603 c1 -35 6 -63 10 -63 16 0 18 30 3 76 l-14 49 1 -62z"/>
<path d="M6881 6435 c0 -16 7 -46 14 -65 l13 -35 1 46 c1 25 -5 54 -14 65 -14
18 -14 18 -14 -11z"/>
<path d="M6055 7083 c4 -21 11 -45 17 -53 7 -11 8 -9 4 10 -3 14 -6 37 -6 53
0 15 -5 27 -11 27 -8 0 -9 -12 -4 -37z"/>
<path d="M6120 6466 c0 -9 5 -16 10 -16 6 0 10 4 10 9 0 6 -4 13 -10 16 -5 3
-10 -1 -10 -9z"/>
<path d="M5987 6443 c-11 -10 -8 -43 3 -43 6 0 10 11 10 25 0 26 -2 29 -13 18z"/>
<path d="M6050 6090 c0 -5 5 -10 10 -10 6 0 10 5 10 10 0 6 -4 10 -10 10 -5 0
-10 -4 -10 -10z"/>
<path d="M4240 2920 c0 -5 7 -10 15 -10 8 0 15 5 15 10 0 6 -7 10 -15 10 -8 0
-15 -4 -15 -10z"/>
<path d="M7033 7577 c4 -10 7 -25 7 -33 0 -8 5 -14 10 -14 16 0 11 36 -7 51
-15 12 -16 12 -10 -4z"/>
<path d="M6995 6965 c8 -56 11 -65 26 -65 13 0 3 51 -18 88 -14 26 -14 25 -8
-23z"/>
<path d="M0 6876 c0 -9 5 -16 10 -16 6 0 10 4 10 9 0 6 -4 13 -10 16 -5 3 -10
-1 -10 -9z"/>
<path d="M60 6886 c0 -2 9 -6 20 -9 11 -3 18 -1 14 4 -5 9 -34 13 -34 5z"/>
<path d="M110 6862 c0 -5 7 -15 15 -22 8 -7 15 -8 15 -2 0 5 -7 15 -15 22 -8
7 -15 8 -15 2z"/>
<path d="M7041 6770 c0 -8 6 -26 14 -40 13 -23 14 -23 15 -4 0 11 -7 29 -15
40 -11 14 -14 15 -14 4z"/>
<path d="M7 6754 c-4 -4 -7 -14 -7 -23 0 -11 3 -12 11 -4 6 6 10 16 7 23 -2 6
-7 8 -11 4z"/>
<path d="M7266 6355 c4 -27 13 -62 20 -77 8 -15 14 -35 14 -44 0 -10 3 -15 6
-12 8 9 -15 123 -31 155 -15 27 -15 26 -9 -22z"/>
<path d="M7535 5140 c-3 -5 -1 -10 4 -10 6 0 11 5 11 10 0 6 -2 10 -4 10 -3 0
-8 -4 -11 -10z"/>
<path d="M7940 3829 c0 -5 5 -7 10 -4 6 3 10 8 10 11 0 2 -4 4 -10 4 -5 0 -10
-5 -10 -11z"/>
<path d="M8440 3830 c19 -13 30 -13 30 0 0 6 -10 10 -22 10 -19 0 -20 -2 -8
-10z"/>
<path d="M8070 3481 c0 -11 4 -21 9 -21 18 0 21 18 6 30 -13 10 -15 9 -15 -9z"/>
<path d="M8420 3010 c0 -5 7 -10 16 -10 8 0 12 5 9 10 -3 6 -10 10 -16 10 -5
0 -9 -4 -9 -10z"/>
<path d="M8630 2711 c0 -12 44 -61 55 -61 5 0 1 8 -7 18 -8 9 -18 25 -21 35
-7 18 -27 24 -27 8z"/>
<path d="M8607 2643 c-9 -14 3 -51 19 -57 22 -8 24 8 5 38 -10 15 -21 24 -24
19z"/>
<path d="M8675 2571 c-3 -5 -1 -12 5 -16 5 -3 10 1 10 9 0 18 -6 21 -15 7z"/>
<path d="M8690 2427 c0 -8 7 -21 16 -28 14 -11 15 -10 12 11 -3 26 -28 41 -28
17z"/>
<path d="M8990 1382 c0 -5 7 -16 16 -23 14 -12 16 -11 13 5 -4 20 -29 35 -29
18z"/>
<path d="M1051 901 c-6 -10 -7 -21 -4 -25 9 -8 33 14 33 30 0 20 -18 17 -29
-5z"/>
<path d="M1016 848 c-8 -18 9 -58 24 -58 12 0 13 13 1 26 -5 5 -11 18 -13 29
-4 18 -6 18 -12 3z"/>
<path d="M1000 750 c0 -11 -5 -20 -10 -20 -6 0 -5 -8 2 -20 13 -20 13 -20 20
2 10 35 9 58 -2 58 -5 0 -10 -9 -10 -20z"/>
<path d="M843 339 c-25 -39 -29 -59 -13 -59 6 0 10 5 10 11 0 7 7 17 16 23 9
7 14 22 12 37 -3 23 -4 23 -25 -12z"/>
<path d="M760 159 c0 -5 5 -7 10 -4 6 3 10 8 10 11 0 2 -4 4 -10 4 -5 0 -10
-5 -10 -11z"/>
</g>
</svg>
